<?xml version="1.0" encoding="utf-8"?>
<!-- Generator: Adobe Illustrator 18.1.0, SVG Export Plug-In . SVG Version: 6.00 Build 0)  -->
<svg version="1.1"
	 id="svg2" sodipodi:docname="Twitter_bird_logo_2012.svg" inkscape:version="0.48.4 r9939" xmlns:inkscape="http://www.inkscape.org/namespaces/inkscape" xmlns:cc="http://creativecommons.org/ns#" xmlns:rdf="http://www.w3.org/1999/02/22-rdf-syntax-ns#" xmlns:svg="http://www.w3.org/2000/svg" xmlns:dc="http://purl.org/dc/elements/1.1/" xmlns:sodipodi="http://sodipodi.sourceforge.net/DTD/sodipodi-0.dtd"
	 xmlns="http://www.w3.org/2000/svg" xmlns:xlink="http://www.w3.org/1999/xlink" x="0px" y="0px" viewBox="0 0 2000 2000"
	 enable-background="new 0 0 2000 2000" xml:space="preserve">
<sodipodi:namedview  fit-margin-right="0" fit-margin-bottom="0" fit-margin-left="0" fit-margin-top="0" bordercolor="#666666" borderopacity="1.0" inkscape:zoom="3.7200571" inkscape:cx="101.29413" id="base" pagecolor="#ffffff" inkscape:cy="50.181142" showgrid="false" inkscape:window-width="1280" inkscape:window-x="-8" inkscape:window-height="962" inkscape:document-units="px" inkscape:pageshadow="2" inkscape:pageopacity="0.0" inkscape:window-y="-8" inkscape:current-layer="layer1" inkscape:window-maximized="1">
	</sodipodi:namedview>
<g id="layer1" transform="translate(-282.32053,-396.30734)" inkscape:label="Layer 1" inkscape:groupmode="layer">
	<path id="path5" inkscape:connector-curvature="0" fill="#FFFFFF" d="M1556.3,1226.7c-20.1,9-41.9,15-64.6,17.6
		c23.3-14.1,40.9-35.8,49.6-62.3c-21.7,12.8-45.7,22.4-71.3,27.2c-20.5-21.7-49.9-35.5-82.2-35.5c-62,0-112.5,50.5-112.5,112.5
		c0,9,1,17.3,2.9,25.6c-93.4-4.8-176.5-49.6-231.8-117.7c-9.6,16.6-15.3,35.8-15.3,56.6c0,39,19.8,73.5,50.2,93.7
		c-18.5-0.6-35.8-5.8-50.8-14.1c0,0.3,0,1,0,1.3c0,54.4,38.7,100.1,90.2,110.3c-9.6,2.6-19.5,3.8-29.7,3.8c-7.4,0-14.4-0.6-21.1-1.9
		c14.4,44.8,55.9,77.4,105.2,78c-38.4,30.1-87,48.3-139.7,48.3c-9,0-17.9-0.6-26.9-1.6c49.9,32,109,50.5,172.3,50.5
		c206.9,0,320-171.4,320-320c0-4.8,0-9.6-0.3-14.7C1522.1,1269.2,1541.3,1249.4,1556.3,1226.7L1556.3,1226.7z"/>
</g>
</svg>
